<svg width="1200" height="720" viewBox="0 0 1200 720" fill="none" xmlns="http://www.w3.org/2000/svg">
  <rect width="1200" height="720" rx="40" fill="#F8E8DA"/>
  <circle cx="970" cy="142" r="110" fill="#E8D7C8"/>
  <circle cx="202" cy="564" r="120" fill="#D8E2D3"/>
  <rect x="138" y="132" width="492" height="432" rx="36" fill="#FFF9F3" stroke="#D5C1B0" stroke-width="10"/>
  <rect x="202" y="174" width="196" height="352" rx="28" fill="#2F241E"/>
  <rect x="219" y="202" width="162" height="270" rx="20" fill="#EAE4DE"/>
  <circle cx="300" cy="496" r="12" fill="#7D9577"/>
  <path d="M444 228C492 192 542 196 586 240" stroke="#C57C6C" stroke-width="18" stroke-linecap="round"/>
  <path d="M430 304C478 268 530 270 576 318" stroke="#C57C6C" stroke-width="18" stroke-linecap="round"/>
  <path d="M420 382C468 346 520 348 566 396" stroke="#C57C6C" stroke-width="18" stroke-linecap="round"/>
  <path d="M656 170H1016C1040.3 170 1060 189.7 1060 214V506C1060 530.3 1040.3 550 1016 550H656C631.7 550 612 530.3 612 506V214C612 189.7 631.7 170 656 170Z" fill="#FFFDF9" stroke="#D5C1B0" stroke-width="10"/>
  <rect x="674" y="214" width="324" height="48" rx="18" fill="#F1DFCE"/>
  <rect x="674" y="288" width="248" height="34" rx="17" fill="#DCE6D9"/>
  <rect x="674" y="344" width="204" height="34" rx="17" fill="#DCE6D9"/>
  <rect x="674" y="400" width="280" height="34" rx="17" fill="#DCE6D9"/>
  <path d="M1006 298L1048 340L1110 264" stroke="#7D9577" stroke-width="24" stroke-linecap="round" stroke-linejoin="round"/>
  <path d="M858 500L930 430" stroke="#D7A36D" stroke-width="22" stroke-linecap="round"/>
  <path d="M930 500L1002 430" stroke="#D7A36D" stroke-width="22" stroke-linecap="round"/>
  <text x="680" y="248" fill="#5A4840" font-family="Manrope, sans-serif" font-size="24" font-weight="700">Phone off desk. Focus on next task.</text>
  <text x="682" y="316" fill="#5A4840" font-family="Manrope, sans-serif" font-size="24">1. Park the phone away from reach</text>
  <text x="682" y="372" fill="#5A4840" font-family="Manrope, sans-serif" font-size="24">2. Write one small next step</text>
  <text x="682" y="428" fill="#5A4840" font-family="Manrope, sans-serif" font-size="24">3. Run a short focus block</text>
</svg>
