<svg width="1200" height="720" viewBox="0 0 1200 720" fill="none" xmlns="http://www.w3.org/2000/svg">
  <rect width="1200" height="720" rx="40" fill="#F7EEE4"/>
  <circle cx="210" cy="546" r="122" fill="#E7D7C9"/>
  <circle cx="1016" cy="166" r="110" fill="#D9E7DF"/>
  <rect x="96" y="522" width="1008" height="88" rx="24" fill="#D8C2B0"/>
  <rect x="196" y="188" width="382" height="284" rx="32" fill="#FFF9F3" stroke="#D7C0AE" stroke-width="10"/>
  <rect x="238" y="236" width="298" height="34" rx="17" fill="#EEDFCC"/>
  <rect x="238" y="296" width="236" height="34" rx="17" fill="#DCE6D9"/>
  <rect x="238" y="356" width="196" height="34" rx="17" fill="#DCE6D9"/>
  <rect x="670" y="160" width="238" height="238" rx="119" fill="#FFFDF9" stroke="#D7C0AE" stroke-width="10"/>
  <circle cx="790" cy="278" r="88" fill="#F6F1EA"/>
  <path d="M790 220V280L842 320" stroke="#BC6C47" stroke-width="18" stroke-linecap="round" stroke-linejoin="round"/>
  <rect x="614" y="432" width="376" height="82" rx="26" fill="#FFFDF9" stroke="#D7C0AE" stroke-width="10"/>
  <rect x="642" y="458" width="84" height="30" rx="15" fill="#DCE6D9"/>
  <rect x="744" y="458" width="84" height="30" rx="15" fill="#EEDFCC"/>
  <rect x="846" y="458" width="116" height="30" rx="15" fill="#DCE6D9"/>
  <path d="M606 214L560 258" stroke="#7D9577" stroke-width="18" stroke-linecap="round"/>
  <path d="M972 214L1018 258" stroke="#7D9577" stroke-width="18" stroke-linecap="round"/>
  <text x="238" y="258" fill="#5A4840" font-family="Manrope, sans-serif" font-size="24" font-weight="700">Deep work block</text>
  <text x="238" y="319" fill="#5A4840" font-family="Manrope, sans-serif" font-size="24">Choose one output</text>
  <text x="238" y="379" fill="#5A4840" font-family="Manrope, sans-serif" font-size="24">Protect the timer</text>
  <text x="648" y="483" fill="#5A4840" font-family="Manrope, sans-serif" font-size="24">plan</text>
  <text x="760" y="483" fill="#5A4840" font-family="Manrope, sans-serif" font-size="24">focus</text>
  <text x="860" y="483" fill="#5A4840" font-family="Manrope, sans-serif" font-size="24">review</text>
</svg>
