<svg width="1200" height="720" viewBox="0 0 1200 720" fill="none" xmlns="http://www.w3.org/2000/svg">
  <rect width="1200" height="720" rx="40" fill="#EAF2EA"/>
  <circle cx="178" cy="168" r="116" fill="#D6E2D1"/>
  <circle cx="1018" cy="554" r="126" fill="#F1DFCE"/>
  <rect x="134" y="122" width="932" height="476" rx="44" fill="#FFFDF9" stroke="#C7D8C3" stroke-width="10"/>
  <rect x="196" y="196" width="358" height="304" rx="28" fill="#DCE9D6"/>
  <circle cx="374" cy="320" r="96" fill="#F9FBF8"/>
  <path d="M322 312C330 272 366 246 404 246C454 246 496 286 496 336C496 386 454 426 404 426C368 426 336 404 322 372" stroke="#6A8B63" stroke-width="18" stroke-linecap="round"/>
  <path d="M278 190L470 382" stroke="#C57C6C" stroke-width="20" stroke-linecap="round"/>
  <rect x="642" y="192" width="338" height="64" rx="20" fill="#F1DFCE"/>
  <rect x="642" y="288" width="338" height="64" rx="20" fill="#EAF2EA"/>
  <rect x="642" y="384" width="338" height="64" rx="20" fill="#F1DFCE"/>
  <path d="M1000 220L1040 252L1102 176" stroke="#6A8B63" stroke-width="22" stroke-linecap="round" stroke-linejoin="round"/>
  <path d="M1000 316L1040 348L1102 272" stroke="#6A8B63" stroke-width="22" stroke-linecap="round" stroke-linejoin="round"/>
  <path d="M1000 412L1040 444L1102 368" stroke="#6A8B63" stroke-width="22" stroke-linecap="round" stroke-linejoin="round"/>
  <text x="660" y="233" fill="#445849" font-family="Manrope, sans-serif" font-size="26" font-weight="700">Silence notifications</text>
  <text x="660" y="329" fill="#445849" font-family="Manrope, sans-serif" font-size="26" font-weight="700">Plan quiet alternatives</text>
  <text x="660" y="425" fill="#445849" font-family="Manrope, sans-serif" font-size="26" font-weight="700">Review the calmer baseline</text>
</svg>
